<svg xmlns="http://www.w3.org/2000/svg" viewBox="0 0 512 512" width="512" height="512">
	<style>
		tspan { white-space:pre }
		.shp0 { fill: #000000 }
	</style>
	<path class="shp0" d="M0 0L512 0L512 512L0 512L0 0Z" />
	<path fill="#ffffff" d="M353.7 209.83L353.7 277.8Q353.7 305.34 347.25 326.43Q341 347.33 329.09 361.59Q317.17 375.65 299.98 382.88Q282.8 390.1 261.31 390.1Q240.02 390.1 222.84 382.88Q205.65 375.65 193.54 361.59Q181.63 347.33 174.98 326.43Q168.54 305.34 168.54 277.8L168.54 209.83Q168.54 182.29 174.98 161.39Q181.43 140.3 193.34 126.23Q205.45 111.98 222.45 104.75Q239.63 97.52 260.92 97.52Q282.41 97.52 299.59 104.75Q316.78 111.98 328.7 126.23Q340.8 140.3 347.25 161.39Q353.7 182.29 353.7 209.83ZM223.23 201.23L223.23 254.36L299.01 197.91Q298.42 169.2 289.05 155.34Q279.67 141.47 260.92 141.47Q241.98 141.47 232.6 156.12Q223.23 170.77 223.23 201.23ZM299.01 286L299.01 234.83L223.23 291.08Q224.2 319.2 233.58 332.88Q242.95 346.35 261.31 346.35Q280.45 346.35 289.63 331.51Q299.01 316.66 299.01 286Z" />
</svg>
